<?xml version="1.0" encoding="UTF-8"?>
<svg id="Layer_2" data-name="Layer 2" xmlns="http://www.w3.org/2000/svg" viewBox="0 0 679.93 222.37">
  <defs>
    <style>
      .cls-1 {
        fill: #de9126;
      }

      .cls-2 {
        fill: #9366ab;
      }

      .cls-3 {
        fill: #502975;
      }

      .cls-4 {
        fill: #df9126;
      }
    </style>
  </defs>
  <g id="Layer_1-2" data-name="Layer 1">
    <g id="English_Logo" data-name="English Logo">
      <g>
        <path class="cls-2" d="m43.49,69.26c-.45,4.7-3.41,41.81,24.57,67.71,6.56,6.07,23.92,19.97,49.59,20.28,27.81.34,46.18-15.49,50.73-19.68,28-25.77,24.35-62.91,23.87-67.03-18.17-5.17-43.31-10.35-73.5-10.69-30.95-.35-56.75,4.48-75.26,9.41Z"/>
        <path class="cls-2" d="m29.65,73.07c-2.72.52-12.15,4.9-13.58,6.06-4.76,3.86-6.32,4.62-8.75,8.92-6.1,10.77-14.77,20.79,4.55,87.94,4.13,13.89,14.24,33.56,21.22,40.29,3.06,2.94,6.08,4.81,8.29,5.91,51.21.06,102.41.12,153.62.18,2.38-1.57,5.41-3.95,8.29-7.41,4.42-5.3,11.11-16.77,12.08-20.13,3.93-10.81,16.17-35.03,16.06-76.76.84-9.71-3.22-24.97-6.17-29.63-7.01-11.1-18.24-13.81-19.59-14.03.46,5.34,2.82,39.77-23.56,67.76-26.07,27.66-60.04,27.63-65.65,27.53-36.21-.65-58.59-23.41-62.74-27.79-26.74-28.26-24.53-63.26-24.09-68.82Z"/>
        <path class="cls-4" d="m37.07,39.72c-6.26-3.04-6.6-21.69,3.71-32.56,12.4-13.07,37.48-5.9,45.79,2.91,5.98,6.33,6.62,12.97,6.62,12.97.21,2.21-.02,4.06-.26,5.29-.54-1.4-6.02-14.8-20.12-18.26-2.92-.72-11.09-2.94-18.53,1.85-10.16,6.54-9,19.99-9.53,20.65-.25,1.06-1.11,3.09-2.91,5.03s-3.46,2.75-4.76,2.12Z"/>
        <path class="cls-4" d="m198.16,39.72c6.26-3.04,6.6-21.69-3.71-32.56-12.4-13.07-37.48-5.9-45.79,2.91-5.98,6.33-6.62,12.97-6.62,12.97-.21,2.21.02,4.06.26,5.29.54-1.4,6.02-14.8,20.12-18.26,2.92-.72,11.09-2.94,18.53,1.85,10.16,6.54,9,19.99,9.53,20.65.25,1.06,1.11,3.09,2.91,5.03s3.46,2.75,4.76,2.12Z"/>
        <path class="cls-4" d="m44.83,58.6c-2.54-5.15-7.14-8.38-11.65-8.12-3.36.2-5.8,2.29-6,2.47-.68.6-3.27,2.89-3.18,6.35.04,1.62.66,2.86,1.06,3.53.49-.86,2.95-4.91,8.12-6.35,6.13-1.71,11.01,1.66,11.65,2.12Z"/>
        <path class="cls-4" d="m189.89,58.6c2.54-5.15,7.14-8.38,11.65-8.12,3.36.2,5.8,2.29,6,2.47.68.6,3.27,2.89,3.18,6.35-.04,1.62-.66,2.86-1.06,3.53-.49-.86-2.95-4.91-8.12-6.35-6.13-1.71-11.01,1.66-11.65,2.12Z"/>
      </g>
      <g>
        <path class="cls-3" d="m257.41,130.55v-10.92h43.4c2.8,0,4.2-1.4,4.2-4.2v-10.08c0-2.71-1.17-4.25-3.5-4.62l-27.3-5.6c-11.2-2.24-16.8-9.75-16.8-22.54v-7.84c0-15.68,7.84-23.52,23.52-23.52h32.06l9.38,7.28v10.92h-40.6c-2.8,0-4.2,1.4-4.2,4.2v9.1c0,2.61,1.17,4.15,3.5,4.62l27.3,5.46c11.2,2.24,16.8,9.75,16.8,22.54v8.96c0,15.68-7.84,23.52-23.52,23.52h-34.86l-9.38-7.28Z"/>
        <path class="cls-3" d="m342.53,137.83V34.23h19.32v29.68h21.56c15.12,0,22.68,7.56,22.68,22.68v51.24h-19.32v-52.64c0-2.99-1.49-4.48-4.48-4.48h-20.44v57.12h-19.32Z"/>
        <path class="cls-3" d="m424.57,115.15v-28.56c0-15.12,7.56-22.68,22.68-22.68h19.6c15.12,0,22.68,7.56,22.68,22.68v28.56c0,15.12-7.56,22.68-22.68,22.68h-19.6c-15.12,0-22.68-7.56-22.68-22.68Zm19.32,1.4c0,2.99,1.49,4.48,4.48,4.48h17.36c2.99,0,4.48-1.49,4.48-4.48v-31.36c0-2.99-1.49-4.48-4.48-4.48h-17.36c-2.99,0-4.48,1.49-4.48,4.48v31.36Z"/>
        <path class="cls-3" d="m508.01,137.83v-64.4c3.45-6.35,10.08-9.52,19.88-9.52h15.12l8.4,6.3v10.5h-18.34c-2.8,0-4.71.7-5.74,2.1v55.02h-19.32Z"/>
        <path class="cls-3" d="m564,115.15v-28.56c0-15.12,7.56-22.68,22.68-22.68h19.6c15.12,0,22.68,7.56,22.68,22.68v28.56c0,15.12-7.56,22.68-22.68,22.68h-19.6c-15.12,0-22.68-7.56-22.68-22.68Zm19.32,1.4c0,2.99,1.49,4.48,4.48,4.48h17.36c2.99,0,4.48-1.49,4.48-4.48v-31.36c0-2.99-1.49-4.48-4.48-4.48h-17.36c-2.99,0-4.48,1.49-4.48,4.48v31.36Z"/>
        <path class="cls-3" d="m647.44,110.95V34.23h19.32v78.68c0,5.79,2.99,9.01,8.96,9.66v16.66c-18.85,0-28.28-9.43-28.28-28.28Z"/>
      </g>
      <g>
        <path class="cls-1" d="m268.14,201.57c-.77,0-1.32-.1-1.66-.31-.34-.21-.51-.5-.51-.88v-12.87l-8.28-13.08c-.11-.19-.2-.36-.27-.51-.07-.15-.1-.28-.1-.39,0-.27.18-.48.55-.62.37-.14.96-.21,1.78-.21h1.31c.66,0,1.15.06,1.48.18s.6.38.82.76l6.56,10.91h-2.09l6.56-10.95c.19-.36.46-.59.82-.72.35-.12.86-.18,1.52-.18h1.11c.79,0,1.37.07,1.72.21.35.14.53.34.53.62,0,.11-.03.24-.08.39-.06.15-.15.32-.29.51l-8.24,13.2v12.75c0,.38-.17.68-.51.88s-.91.31-1.7.31h-1.03Z"/>
        <path class="cls-1" d="m293.88,201.77c-4.18,0-7.39-1.26-9.63-3.77-2.24-2.51-3.36-6.14-3.36-10.86s1.12-8.42,3.36-10.91c2.24-2.49,5.45-3.73,9.63-3.73s7.39,1.24,9.61,3.73,3.34,6.12,3.34,10.91-1.11,8.35-3.34,10.86c-2.23,2.52-5.43,3.77-9.61,3.77Zm0-4.59c2.43,0,4.28-.85,5.54-2.56,1.26-1.71,1.89-4.22,1.89-7.52s-.63-5.8-1.89-7.48c-1.26-1.68-3.1-2.52-5.54-2.52s-4.28.84-5.56,2.52c-1.27,1.68-1.91,4.17-1.91,7.48s.64,5.82,1.91,7.52,3.12,2.56,5.56,2.56Z"/>
        <path class="cls-1" d="m323.4,201.77c-3.66,0-6.53-.86-8.61-2.58-2.08-1.72-3.12-4.11-3.12-7.17v-18.12c0-.38.18-.68.53-.88.35-.21.92-.31,1.68-.31h1.03c.79,0,1.36.1,1.7.31s.51.5.51.88v17.88c0,1.7.55,3.02,1.66,3.98,1.11.96,2.64,1.44,4.61,1.44s3.59-.48,4.71-1.44c1.12-.96,1.68-2.28,1.68-3.98v-17.88c0-.38.18-.68.53-.88.35-.21.92-.31,1.68-.31h1.03c.79,0,1.36.1,1.7.31s.51.5.51.88v18.12c0,3.06-1.05,5.45-3.16,7.17-2.11,1.72-5,2.58-8.69,2.58Z"/>
        <path class="cls-1" d="m343.37,201.57c-.77,0-1.33-.1-1.68-.31-.36-.21-.53-.5-.53-.88v-26.08c0-1.01.48-1.52,1.43-1.52h8.12c3.42,0,5.94.7,7.56,2.09,1.63,1.39,2.44,3.4,2.44,6.03,0,1.18-.18,2.23-.55,3.16-.37.93-.92,1.7-1.64,2.32-.72.62-1.61,1.07-2.64,1.37v.16c.6.19,1.15.6,1.66,1.23s.92,1.38,1.25,2.25l3.28,8.2c.11.25.19.46.25.66.05.19.08.36.08.49,0,.3-.16.51-.49.64s-.88.18-1.64.18h-1.27c-.52,0-.97-.07-1.35-.21s-.66-.41-.82-.82l-3.2-7.91c-.25-.66-.55-1.18-.9-1.58-.36-.4-.81-.69-1.37-.88-.56-.19-1.29-.29-2.19-.29h-2.54v10.5c0,.38-.17.68-.51.88s-.91.31-1.7.31h-1.03Zm3.24-16.03h4.3c1.5,0,2.59-.31,3.26-.94.67-.63,1-1.65,1-3.08s-.33-2.5-1-3.16c-.67-.66-1.76-.98-3.26-.98h-4.3v8.16Z"/>
        <path class="cls-1" d="m387.9,201.77c-4.18,0-7.39-1.26-9.63-3.77-2.24-2.51-3.36-6.14-3.36-10.86s1.12-8.42,3.36-10.91,5.45-3.73,9.63-3.73,7.39,1.24,9.61,3.73,3.34,6.12,3.34,10.91-1.11,8.35-3.34,10.86c-2.23,2.52-5.43,3.77-9.61,3.77Zm0-4.59c2.43,0,4.28-.85,5.54-2.56,1.26-1.71,1.89-4.22,1.89-7.52s-.63-5.8-1.89-7.48c-1.26-1.68-3.1-2.52-5.54-2.52s-4.28.84-5.56,2.52c-1.27,1.68-1.91,4.17-1.91,7.48s.64,5.82,1.91,7.52c1.27,1.71,3.12,2.56,5.56,2.56Z"/>
        <path class="cls-1" d="m408.19,201.57c-.77,0-1.33-.1-1.68-.31-.36-.21-.53-.5-.53-.88v-26.49c0-.38.18-.68.53-.88.35-.21.92-.31,1.68-.31h1.23c.44,0,.8.04,1.09.1.29.07.55.18.8.35s.48.41.7.74l10.7,15.95c.3.41.57.85.82,1.33.25.48.49.94.74,1.37l.16-.04c-.03-.46-.06-.94-.1-1.42-.04-.48-.06-1.02-.06-1.62v-15.58c0-.38.18-.68.53-.88s.92-.31,1.68-.31h.74c.79,0,1.36.1,1.7.31.34.21.51.5.51.88v26.49c0,.38-.17.68-.51.88-.34.21-.91.31-1.7.31h-1.23c-.36,0-.68-.03-.96-.08s-.53-.14-.74-.27-.39-.31-.55-.55l-11.03-16.48c-.27-.41-.54-.85-.8-1.33-.26-.48-.51-.94-.76-1.37l-.16.04c.05.46.09.94.1,1.41.01.48.02,1.02.02,1.62v15.83c0,.38-.16.68-.49.88s-.89.31-1.68.31h-.74Z"/>
        <path class="cls-1" d="m436.89,201.48c-.96,0-1.43-.51-1.43-1.52v-25.67c0-1.01.48-1.52,1.43-1.52h14.51c.71,0,1.07.59,1.07,1.76v1.07c0,1.18-.36,1.76-1.07,1.76h-10.5v7.13h9.39c.68,0,1.03.59,1.03,1.76v1.07c0,1.17-.34,1.76-1.03,1.76h-9.39v7.79h10.54c.71,0,1.07.59,1.07,1.76v1.07c0,1.17-.36,1.76-1.07,1.76h-14.56Z"/>
        <path class="cls-1" d="m457.39,192.55c-.74,0-1.11-.59-1.11-1.76v-.33c0-1.17.37-1.76,1.11-1.76h7.79c.74,0,1.11.59,1.11,1.76v.33c0,1.18-.37,1.76-1.11,1.76h-7.79Z"/>
        <path class="cls-1" d="m478.14,201.77c-1.29,0-2.45-.1-3.51-.31-1.05-.21-1.96-.47-2.73-.8s-1.38-.64-1.84-.94c-.33-.22-.6-.43-.82-.64s-.33-.46-.33-.76c0-.25.04-.55.12-.9s.19-.71.33-1.07c.14-.35.29-.65.47-.88.18-.23.38-.35.59-.35.25,0,.72.17,1.43.51.71.34,1.56.68,2.56,1.03s2.08.51,3.26.51c.93,0,1.69-.12,2.3-.37s1.06-.63,1.37-1.15c.31-.52.47-1.16.47-1.93,0-.71-.18-1.31-.55-1.8s-.85-.92-1.44-1.29-1.26-.7-2.01-.98-1.51-.61-2.28-.96c-.77-.33-1.51-.7-2.23-1.13-.72-.42-1.38-.94-1.97-1.54-.59-.6-1.05-1.35-1.39-2.25s-.51-1.98-.51-3.24c0-1.34.26-2.51.78-3.53.52-1.01,1.22-1.85,2.11-2.52.89-.67,1.9-1.17,3.03-1.5,1.13-.33,2.32-.49,3.55-.49.82,0,1.63.07,2.42.21.79.14,1.52.31,2.19.53.67.22,1.22.48,1.66.78.27.19.5.39.68.59.18.21.27.4.27.59,0,.22-.04.51-.12.88s-.19.73-.33,1.09c-.14.36-.29.65-.47.88-.18.23-.38.35-.59.35-.3,0-.72-.12-1.25-.35-.53-.23-1.17-.46-1.91-.68-.74-.22-1.57-.33-2.5-.33-.88,0-1.61.12-2.21.37-.6.25-1.06.61-1.37,1.09-.31.48-.47,1.07-.47,1.78,0,.79.23,1.44.68,1.95s1.05.92,1.8,1.25,1.55.67,2.4,1.03c.88.36,1.76.75,2.64,1.19.89.44,1.7.98,2.44,1.62.74.64,1.33,1.44,1.78,2.4.45.96.68,2.15.68,3.57s-.24,2.75-.72,3.83c-.48,1.08-1.16,1.96-2.03,2.64s-1.86,1.19-2.95,1.52c-1.09.33-2.25.49-3.49.49Z"/>
        <path class="cls-1" d="m499.05,201.57c-.74,0-1.28-.1-1.62-.31s-.51-.5-.51-.88v-23h-7.01c-.71,0-1.07-.59-1.07-1.76v-1.07c0-1.18.35-1.76,1.07-1.76h19.35c.74,0,1.11.59,1.11,1.76v1.07c0,1.18-.37,1.76-1.11,1.76h-6.93v23c0,.38-.16.68-.49.88s-.88.31-1.64.31h-1.15Z"/>
        <path class="cls-1" d="m525.04,201.77c-4.18,0-7.39-1.26-9.63-3.77-2.24-2.51-3.36-6.14-3.36-10.86s1.12-8.42,3.36-10.91,5.45-3.73,9.63-3.73,7.39,1.24,9.61,3.73,3.34,6.12,3.34,10.91-1.11,8.35-3.34,10.86c-2.23,2.52-5.43,3.77-9.61,3.77Zm0-4.59c2.43,0,4.28-.85,5.54-2.56,1.26-1.71,1.89-4.22,1.89-7.52s-.63-5.8-1.89-7.48c-1.26-1.68-3.1-2.52-5.54-2.52s-4.28.84-5.56,2.52c-1.27,1.68-1.91,4.17-1.91,7.48s.64,5.82,1.91,7.52c1.27,1.71,3.12,2.56,5.56,2.56Z"/>
        <path class="cls-1" d="m545.33,201.57c-.77,0-1.33-.1-1.68-.31-.36-.21-.53-.5-.53-.88v-26.08c0-1.01.48-1.52,1.43-1.52h8.32c3.25,0,5.7.73,7.34,2.19,1.64,1.46,2.46,3.64,2.46,6.54s-.82,5.08-2.46,6.56c-1.64,1.48-4.09,2.21-7.34,2.21h-4.3v10.09c0,.38-.17.68-.51.88s-.91.31-1.7.31h-1.03Zm3.24-15.87h4.3c1.5,0,2.59-.33,3.26-.98.67-.66,1-1.72,1-3.2s-.33-2.5-1-3.16c-.67-.66-1.76-.98-3.26-.98h-4.3v8.32Z"/>
        <path class="cls-1" d="m578.54,201.57c-.77,0-1.33-.1-1.68-.31-.36-.21-.53-.5-.53-.88v-26.49c0-.38.18-.68.53-.88.35-.21.92-.31,1.68-.31h1.89c.63,0,1.15.08,1.58.25.42.16.74.44.96.82l6.48,12.05c.22.36.43.74.63,1.15s.36.79.47,1.15c.14-.33.31-.72.53-1.19s.41-.85.57-1.15l6.52-11.97c.25-.41.56-.7.94-.86s.87-.25,1.48-.25h1.85c.79,0,1.36.1,1.7.31s.51.5.51.88v26.49c0,.38-.17.68-.51.88s-.91.31-1.7.31h-.74c-.77,0-1.32-.1-1.66-.31-.34-.21-.51-.5-.51-.88v-18.7l-.16-.04c-.14.3-.29.59-.45.86-.16.27-.31.55-.45.82l-5.33,9.92c-.19.38-.46.64-.82.78-.36.14-.85.21-1.48.21h-.66c-.63,0-1.11-.07-1.46-.21s-.62-.4-.84-.78l-5.37-10c-.14-.27-.29-.55-.45-.82-.16-.27-.32-.56-.45-.86l-.16.04v18.78c0,.38-.16.68-.49.88s-.89.31-1.68.31h-.74Z"/>
        <path class="cls-1" d="m610.2,201.57c-.77,0-1.33-.08-1.7-.23-.37-.15-.55-.35-.55-.59,0-.11.02-.22.06-.33.04-.11.08-.23.1-.37l9.27-26.57c.08-.27.3-.47.66-.59.35-.12.83-.18,1.43-.18h1.8c.63,0,1.11.06,1.43.18s.55.32.66.59l9.27,26.57c.05.14.09.26.1.37.01.11.02.22.02.33,0,.25-.16.45-.47.59-.31.15-.81.23-1.5.23h-1.27c-.55,0-1-.05-1.37-.16-.37-.11-.61-.31-.72-.62l-6.44-19.23c-.11-.41-.22-.83-.33-1.27-.11-.44-.21-.86-.29-1.27h-.12c-.08.41-.17.83-.27,1.27-.1.44-.21.86-.35,1.27l-6.48,19.23c-.11.27-.32.47-.64.59s-.7.18-1.17.18h-1.15Zm2.99-6.56v-4.31h14.27v4.31h-14.27Z"/>
        <path class="cls-1" d="m638.24,201.57c-.77,0-1.33-.1-1.68-.31-.36-.21-.53-.5-.53-.88v-26.08c0-1.01.48-1.52,1.43-1.52h8.12c3.42,0,5.94.7,7.56,2.09,1.63,1.39,2.44,3.4,2.44,6.03,0,1.18-.18,2.23-.55,3.16-.37.93-.92,1.7-1.64,2.32-.72.62-1.61,1.07-2.64,1.37v.16c.6.19,1.15.6,1.66,1.23s.92,1.38,1.25,2.25l3.28,8.2c.11.25.19.46.25.66.05.19.08.36.08.49,0,.3-.16.51-.49.64s-.88.18-1.64.18h-1.27c-.52,0-.97-.07-1.35-.21s-.66-.41-.82-.82l-3.2-7.91c-.25-.66-.55-1.18-.9-1.58-.36-.4-.81-.69-1.37-.88-.56-.19-1.29-.29-2.19-.29h-2.54v10.5c0,.38-.17.68-.51.88s-.91.31-1.7.31h-1.03Zm3.24-16.03h4.3c1.5,0,2.59-.31,3.26-.94.67-.63,1-1.65,1-3.08s-.33-2.5-1-3.16c-.67-.66-1.76-.98-3.26-.98h-4.3v8.16Z"/>
        <path class="cls-1" d="m668.62,201.57c-.74,0-1.28-.1-1.62-.31s-.51-.5-.51-.88v-23h-7.01c-.71,0-1.07-.59-1.07-1.76v-1.07c0-1.18.35-1.76,1.07-1.76h19.35c.74,0,1.11.59,1.11,1.76v1.07c0,1.18-.37,1.76-1.11,1.76h-6.93v23c0,.38-.16.68-.49.88s-.88.31-1.64.31h-1.15Z"/>
      </g>
    </g>
  </g>
</svg>